<?xml version="1.0" encoding="UTF-8" standalone="no"?>
<!-- Created with Inkscape (http://www.inkscape.org/) -->

<svg
   width="785.64941mm"
   height="146.71344mm"
   viewBox="0 0 785.64941 146.71344"
   version="1.1"
   id="svg1"
   xmlns="http://www.w3.org/2000/svg"
   xmlns:svg="http://www.w3.org/2000/svg">
  <defs
     id="defs1">
    <filter
       style="color-interpolation-filters:sRGB"
       id="filter15-7"
       x="-0.016201467"
       y="-0.016976253"
       width="1.0324029"
       height="1.0339525">
      <feGaussianBlur
         stdDeviation="0.066904335"
         id="feGaussianBlur15-6" />
    </filter>
    <filter
       style="color-interpolation-filters:sRGB"
       id="filter10-1"
       x="-0.012083283"
       y="-0.0071755411"
       width="1.0241666"
       height="1.0143511">
      <feGaussianBlur
         stdDeviation="0.097766259"
         id="feGaussianBlur10-6" />
    </filter>
    <filter
       style="color-interpolation-filters:sRGB"
       id="filter20-9"
       x="-0.021059029"
       y="-0.00760166"
       width="1.0421181"
       height="1.0152033">
      <feGaussianBlur
         stdDeviation="0.082014756"
         id="feGaussianBlur20-2" />
    </filter>
    <filter
       style="color-interpolation-filters:sRGB"
       id="filter31-2"
       x="-0.0085858654"
       y="-0.01876133"
       width="1.0171717"
       height="1.0375227">
      <feGaussianBlur
         stdDeviation="0.091073624"
         id="feGaussianBlur31-3" />
    </filter>
    <filter
       style="color-interpolation-filters:sRGB"
       id="filter30-7"
       x="-0.0093401054"
       y="-0.069229676"
       width="1.0186802"
       height="1.1384594">
      <feGaussianBlur
         stdDeviation="0.058802477"
         id="feGaussianBlur30-4" />
    </filter>
    <filter
       style="color-interpolation-filters:sRGB"
       id="filter10-6-9"
       x="-0.014853541"
       y="-0.009323672"
       width="1.0297071"
       height="1.0186473">
      <feGaussianBlur
         stdDeviation="0.067496277"
         id="feGaussianBlur10-5-8" />
    </filter>
  </defs>
  <g
     id="g34"
     transform="translate(-18.977909,-298.10625)">
    <path
       style="font-size:192px;font-family:'Microsoft Sans Serif';-inkscape-font-specification:'Microsoft Sans Serif';white-space:pre;fill:#ffffff;fill-opacity:1;stroke:#ffffff;stroke-width:3.81354;stroke-opacity:1"
       d="m 1703.7617,248.09133 h -45.4687 v 121.125 h -18.2813 v -121.125 h -45.0937 v -16.3125 h 108.8437 z"
       transform="matrix(0.47819879,0,0,0.47819879,-11.021319,227.76539)"
       id="path10" />
    <path
       style="font-size:192px;font-family:'Microsoft Sans Serif';-inkscape-font-specification:'Microsoft Sans Serif';white-space:pre;fill:#ffffff;fill-opacity:1;stroke:#ffffff;stroke-width:3.81354;stroke-opacity:1"
       d="m 1524.9805,371.56008 q -29.1563,0 -46.5938,-19.125 -17.3437,-19.21875 -17.3437,-51.9375 0,-32.71875 17.3437,-51.84375 17.4375,-19.21875 46.5938,-19.21875 22.4062,0 38.1562,12.09375 15.75,12.09375 17.7188,31.875 h -18.75 q -1.125,-13.03125 -11.3438,-20.71875 -10.125,-7.6875 -25.5937,-7.6875 -20.9063,0 -33.0938,14.4375 -12.1875,14.34375 -12.1875,41.0625 0,26.625 12.0938,41.0625 12.0937,14.4375 32.8125,14.4375 16.125,0 26.0625,-7.875 9.9375,-7.875 11.25,-22.5 h 18.75 q -1.9688,21.9375 -17.25,33.9375 -15.2813,12 -38.625,12 z"
       transform="matrix(0.47819879,0,0,0.47819879,-11.021319,227.76539)"
       id="path9" />
    <path
       style="font-size:192px;font-family:'Microsoft Sans Serif';-inkscape-font-specification:'Microsoft Sans Serif';white-space:pre;fill:#ffffff;fill-opacity:1;stroke:#ffffff;stroke-width:3.81354;stroke-opacity:1"
       d="m 1441.8242,369.21633 h -102.4687 v -137.4375 h 99.2812 v 16.3125 h -81.0937 v 42 h 75.8437 v 16.3125 h -75.8437 v 46.5 h 84.2812 z"
       transform="matrix(0.47819879,0,0,0.47819879,-11.021319,227.76539)"
       id="path8" />
    <path
       style="font-size:192px;font-family:'Microsoft Sans Serif';-inkscape-font-specification:'Microsoft Sans Serif';white-space:pre;fill:#ffffff;fill-opacity:1;stroke:#ffffff;stroke-width:3.81354;stroke-opacity:1"
       d="m 1263.1367,371.56008 q -29.0625,0 -43.5,-13.03125 -14.3437,-13.03125 -15.0937,-33.46875 h 17.5312 q 1.4063,15.375 12.75,22.78125 11.4375,7.3125 27.5625,7.3125 15.2813,0 24.5625,-6.28125 9.375,-6.28125 9.375,-17.0625 0,-11.34375 -9.6562,-16.5 -9.6563,-5.15625 -33.2813,-10.125 -23.5312,-5.0625 -33.8437,-13.96875 -10.2188,-8.90625 -10.2188,-23.71875 0,-16.6875 13.3125,-27.375 13.4063,-10.6875 35.5313,-10.6875 23.25,0 37.5,10.78125 14.25,10.78125 15.0937,30.46875 h -17.7187 q -2.7188,-24.9375 -34.125,-24.9375 -15.1875,0 -23.5313,5.71875 -8.3437,5.71875 -8.3437,15.1875 0,8.625 6.6562,12.9375 6.75,4.3125 25.0313,8.34375 18.375,4.03125 29.1562,7.96875 10.7813,3.9375 18.4688,12.28125 7.6875,8.25 7.6875,22.21875 0,17.71875 -14.1563,29.4375 -14.0625,11.71875 -36.75,11.71875 z"
       transform="matrix(0.47819879,0,0,0.47819879,-11.021319,227.76539)"
       id="path7" />
    <path
       style="font-size:192px;font-family:'Microsoft Sans Serif';-inkscape-font-specification:'Microsoft Sans Serif';white-space:pre;fill:#ffffff;fill-opacity:1;stroke:#ffffff;stroke-width:3.81354;stroke-opacity:1"
       d="m 1187.1992,369.21633 h -19.6875 l -12.9375,-36.65625 q -3.4687,-9.75 -11.5312,-15.9375 -8.0625,-6.1875 -18.5625,-6.1875 h -33.6563 v 58.78125 h -18.1875 v -137.4375 h 60.8438 q 15.9375,0 26.0625,3.09375 10.125,3.09375 16.5,13.03125 6.375,9.9375 6.375,22.40625 0,14.25 -8.25,23.8125 -8.25,9.5625 -22.5938,12.46875 v 0.375 q 14.3438,4.59375 21.8438,24.84375 z m -96.375,-75.09375 h 40.5938 q 16.9687,0 24.5625,-5.34375 7.6875,-5.34375 7.6875,-18.46875 0,-23.4375 -29.4375,-23.4375 h -43.4063 z"
       transform="matrix(0.47819879,0,0,0.47819879,-11.021319,227.76539)"
       id="path6" />
    <path
       style="font-size:192px;font-family:'Microsoft Sans Serif';-inkscape-font-specification:'Microsoft Sans Serif';white-space:pre;fill:#ffffff;fill-opacity:1;stroke:#ffffff;stroke-width:3.81354;stroke-opacity:1"
       d="M 1047.043,369.21633 H 944.57422 v -137.4375 h 99.28128 v 16.3125 h -81.09378 v 42 h 75.84378 v 16.3125 h -75.84378 v 46.5 h 84.28128 z"
       transform="matrix(0.47819879,0,0,0.47819879,-11.021319,227.76539)"
       id="path5" />
    <path
       style="font-size:192px;font-family:'Microsoft Sans Serif';-inkscape-font-specification:'Microsoft Sans Serif';white-space:pre;fill:#ffffff;fill-opacity:1;stroke:#ffffff;stroke-width:3.81354;stroke-opacity:1"
       d="m 924.98047,248.09133 h -45.46875 v 121.125 h -18.28125 v -121.125 h -45.09375 v -16.3125 h 108.84375 z"
       transform="matrix(0.47819879,0,0,0.47819879,-11.021319,227.76539)"
       id="path4" />
    <path
       style="font-size:192px;font-family:'Microsoft Sans Serif';-inkscape-font-specification:'Microsoft Sans Serif';white-space:pre;fill:#ffffff;fill-opacity:1;stroke:#ffffff;stroke-width:3.81354;stroke-opacity:1"
       d="m 796.54297,369.21633 h -18.65625 l -72,-108.46875 v 108.46875 h -17.25 v -137.4375 h 18.5625 l 72,108.46875 V 231.77883 h 17.34375 z"
       transform="matrix(0.47819879,0,0,0.47819879,-11.021319,227.76539)"
       id="path3" />
    <path
       style="font-size:192px;font-family:'Microsoft Sans Serif';-inkscape-font-specification:'Microsoft Sans Serif';white-space:pre;fill:#ffffff;fill-opacity:1;stroke:#ffffff;stroke-width:3.81354;stroke-opacity:1"
       d="m 655.82422,369.21633 h -18.28125 v -137.4375 h 18.28125 z"
       transform="matrix(0.47819879,0,0,0.47819879,-11.021319,227.76539)"
       id="path2" />
    <path
       style="font-size:192px;font-family:'Microsoft Sans Serif';-inkscape-font-specification:'Microsoft Sans Serif';white-space:pre;fill:#ffffff;fill-opacity:1;stroke:#ffffff;stroke-width:3.81354;stroke-opacity:1"
       d="m 559.07422,371.56008 q -29.0625,0 -43.5,-13.03125 -14.34375,-13.03125 -15.09375,-33.46875 h 17.53125 q 1.40625,15.375 12.75,22.78125 11.4375,7.3125 27.5625,7.3125 15.28125,0 24.5625,-6.28125 9.375,-6.28125 9.375,-17.0625 0,-11.34375 -9.65625,-16.5 -9.65625,-5.15625 -33.28125,-10.125 -23.53125,-5.0625 -33.84375,-13.96875 -10.21875,-8.90625 -10.21875,-23.71875 0,-16.6875 13.3125,-27.375 13.40625,-10.6875 35.53125,-10.6875 23.25,0 37.5,10.78125 14.25,10.78125 15.09375,30.46875 h -17.71875 q -2.71875,-24.9375 -34.125,-24.9375 -15.1875,0 -23.53125,5.71875 -8.34375,5.71875 -8.34375,15.1875 0,8.625 6.65625,12.9375 6.75,4.3125 25.03125,8.34375 18.375,4.03125 29.15625,7.96875 10.78125,3.9375 18.46875,12.28125 7.6875,8.25 7.6875,22.21875 0,17.71875 -14.15625,29.4375 -14.0625,11.71875 -36.75,11.71875 z"
       transform="matrix(0.47819879,0,0,0.47819879,-11.021319,227.76539)"
       id="path1" />
    <path
       style="font-size:192px;font-family:'Microsoft Sans Serif';-inkscape-font-specification:'Microsoft Sans Serif';white-space:pre;fill:#ffffff;fill-opacity:1;stroke:#ffffff;stroke-width:3.81354;stroke-opacity:1"
       d="m 417.41797,229.43508 q 28.875,0 47.25,19.5 18.375,19.5 18.375,51.5625 0,32.0625 -18.375,51.5625 -18.375,19.5 -47.25,19.5 -28.96875,0 -47.4375,-19.5 -18.46875,-19.59375 -18.46875,-51.5625 0,-32.0625 18.46875,-51.5625 18.46875,-19.5 47.4375,-19.5 z m -0.1875,126.5625 q 20.625,0 33.75,-14.625 13.21875,-14.625 13.21875,-40.875 0,-26.25 -13.125,-40.875 -13.125,-14.625 -33.46875,-14.625 -20.71875,0 -34.03125,14.625 -13.21875,14.625 -13.21875,40.875 0,26.15625 13.21875,40.875 13.21875,14.625 33.65625,14.625 z"
       transform="matrix(0.47819879,0,0,0.47819879,-11.021319,227.76539)"
       id="text1-9" />
    <path
       d="M 50.745231,433.27145 A 74.019385,74.019385 0 0 1 121.49842,304.56755"
       stroke="url(#ringGrad)"
       stroke-width="2.51522"
       opacity="0.55"
       stroke-linecap="round"
       id="path6-0"
       style="display:inline;opacity:1;fill:none;fill-opacity:1;stroke:#ffffff;stroke-opacity:1" />
    <path
       d="m 46.375931,336.61866 a 60.365325,60.365325 0 0 0 -5.96108,64.07348"
       stroke="#3cc7d6"
       stroke-width="1.57022"
       opacity="0.45"
       stroke-linecap="round"
       id="path7-0"
       style="opacity:1;fill:none;fill-opacity:1;stroke:#ffffff;stroke-opacity:1" />
    <path
       d="M 107.53175,432.27255 A 60.365325,60.365325 0 0 1 59.358071,422.64644"
       stroke="#6a5cff"
       stroke-width="1.4732"
       opacity="0.42"
       stroke-linecap="round"
       id="path8-6"
       style="opacity:1;fill:none;fill-opacity:1;stroke:#ffffff;stroke-opacity:1" />
    <path
       d="m 73.874491,325.04505 a 52.460342,52.460342 0 0 0 -29.3203,31.54088"
       stroke="#6a5cff"
       stroke-width="2.45054"
       opacity="0.47"
       stroke-linecap="round"
       id="path9-1"
       style="opacity:1;fill:none;fill-opacity:1;stroke:#ffffff;stroke-opacity:1" />
    <path
       d="m 53.648521,391.73795 a 44.555359,44.555359 0 0 0 16.22317,18.94322"
       stroke="#6a5cff"
       stroke-width="2.36431"
       opacity="0.48"
       stroke-linecap="round"
       id="path11-3"
       style="opacity:1;fill:none;fill-opacity:1;stroke:#ffffff;stroke-opacity:1" />
    <path
       d="M 75.531111,423.7934 A 48.736692,48.736692 0 0 1 41.653741,385.93256"
       stroke="#6a5cff"
       stroke-width="2.92027"
       opacity="0.51"
       stroke-linecap="round"
       id="path12-8"
       style="opacity:1;fill:none;fill-opacity:1;stroke:#ffffff;stroke-opacity:1" />
    <path
       d="m 61.463671,343.21933 a 44.555359,44.555359 0 0 0 -10.15072,42.06169"
       stroke="#3cc7d6"
       stroke-width="1.77503"
       opacity="0.35"
       stroke-linecap="round"
       id="path13-9"
       style="opacity:1;fill:none;fill-opacity:1;stroke:#ffffff;stroke-opacity:1" />
    <path
       d="M 130.89457,374.04876 A 36.650376,36.650376 0 0 1 115.80324,403.0313"
       stroke="#6a5cff"
       stroke-width="1.44086"
       opacity="0.36"
       stroke-linecap="round"
       id="path15-3"
       style="display:inline;opacity:1;fill:none;fill-opacity:1;stroke:#ffffff;stroke-opacity:1" />
    <path
       d="m 62.160741,391.08759 a 36.650376,36.650376 0 0 1 3.95249,-41.18496"
       stroke="#3cc7d6"
       stroke-width="1.69957"
       opacity="0.26"
       stroke-linecap="round"
       id="path16-4"
       style="opacity:1;fill:none;fill-opacity:1;stroke:#ffffff;stroke-opacity:1" />
    <path
       id="line16-4"
       style="opacity:1;fill:none;fill-opacity:1;stroke:#ffffff;stroke-width:1.294;stroke-linecap:round;stroke-opacity:1;filter:url(#filter15-7)"
       transform="matrix(0.70059173,-0.20342855,0.20342855,0.70059173,-14.459399,297.10641)"
       d="M 108.50676,138.39134 58.661247,90.820747" />
    <path
       id="line16-1-6"
       style="opacity:1;fill:none;fill-opacity:1;stroke:#ffffff;stroke-width:0.842;stroke-linecap:round;stroke-opacity:1;filter:url(#filter10-1)"
       transform="matrix(0.72952858,0,0,0.72952858,12.337281,269.86574)"
       d="M 108.31322,137.69264 54.053215,46.32127" />
    <path
       id="line17-0"
       style="opacity:1;fill:none;fill-opacity:1;stroke:#ffffff;stroke-width:1.009;stroke-linecap:round;stroke-opacity:1;filter:url(#filter20-9)"
       transform="matrix(0.72952858,0,0,0.72952858,12.337281,269.86574)"
       d="M 109.11639,146.83749 75.81308,239.09831" />
    <path
       id="line17-3-6"
       style="opacity:1;fill:none;fill-opacity:1;stroke:#ffffff;stroke-width:1.201;stroke-linecap:round;stroke-opacity:1;filter:url(#filter31-2)"
       transform="matrix(0.72952858,0,0,0.72952858,12.337281,269.86574)"
       d="M 107.20103,145.31719 11.802762,188.9749" />
    <path
       id="line17-8-6"
       style="opacity:1;fill:none;fill-opacity:1;stroke:#ffffff;stroke-width:1.178;stroke-linecap:round;stroke-opacity:1;filter:url(#filter30-7)"
       transform="matrix(0.72952858,0,0,0.72952858,12.337281,269.86574)"
       d="M 106.05654,143.21027 27.885481,153.7567" />
    <path
       id="line16-1-8-1"
       style="opacity:1;fill:none;fill-opacity:1;stroke:#ffffff;stroke-width:1.41044;stroke-linecap:round;stroke-opacity:1;filter:url(#filter10-6-9)"
       transform="matrix(0.50160634,0.28101378,-0.37553919,0.33368216,91.823501,298.94559)"
       d="M 169.95265,239.62544 111.56852,146.61369" />
    <path
       d="m 32.574551,399.12911 a 66.833038,66.833038 0 0 1 -3.86626,-38.80628"
       stroke="#6a5cff"
       stroke-width="6.46772"
       opacity="0.1"
       stroke-linecap="round"
       id="path42-4"
       style="opacity:1;fill:none;fill-opacity:1;stroke:#ffffff;stroke-opacity:1" />
    <path
       d="m 126.66578,434.72412 a 86.292427,86.292427 0 0 1 -50.206039,3.84856"
       stroke="#6a5cff"
       stroke-width="8.35091"
       opacity="0.1"
       stroke-linecap="round"
       id="path42-8-9"
       style="opacity:1;fill:none;fill-opacity:1;stroke:#ffffff;stroke-opacity:1" />
  </g>
</svg>
